<svg xmlns="http://www.w3.org/2000/svg" viewBox="0 0 200 200" width="200" height="200">
  <!-- White background -->
  <rect width="200" height="200" fill="white"/>

  <!-- Warehouse icon centered, scaled up, color = primary red #7F1D1D -->
  <g transform="translate(30, 38) scale(5.85)" stroke="#7F1D1D" stroke-width="2" stroke-linecap="round" stroke-linejoin="round" fill="none">
    <!-- Roof / top shape: path from lucide warehouse -->
    <path d="M22 8.35V20a2 2 0 0 1-2 2H4a2 2 0 0 1-2-2V8.35A2 2 0 0 1 3.26 6.5l8-3.2a2 2 0 0 1 1.48 0l8 3.2A2 2 0 0 1 22 8.35Z"/>
    <!-- Three horizontal shelf lines -->
    <line x1="6" y1="18" x2="18" y2="18"/>
    <line x1="6" y1="14" x2="18" y2="14"/>
    <line x1="6" y1="10" x2="18" y2="10"/>
  </g>
</svg>
